<mxfile host="app.diagrams.net" agent="Mozilla/5.0 (Windows NT 10.0; Win64; x64) AppleWebKit/537.36 (KHTML, like Gecko) Chrome/134.0.0.0 Safari/537.36" version="26.1.1">
  <diagram name="Page-1" id="APSEbrSXtQdStB9OyfHu">
    <mxGraphModel dx="1050" dy="522" grid="0" gridSize="10" guides="1" tooltips="1" connect="1" arrows="1" fold="1" page="1" pageScale="1" pageWidth="827" pageHeight="1169" math="0" shadow="0">
      <root>
        <mxCell id="0" />
        <mxCell id="1" parent="0" />
        <mxCell id="ATdAvBdtl9F5nvqmdvJ8-14" value="" style="edgeStyle=orthogonalEdgeStyle;rounded=0;orthogonalLoop=1;jettySize=auto;html=1;" parent="1" edge="1">
          <mxGeometry relative="1" as="geometry">
            <mxPoint x="402" y="180" as="sourcePoint" />
            <mxPoint x="402" y="115" as="targetPoint" />
          </mxGeometry>
        </mxCell>
        <mxCell id="ATdAvBdtl9F5nvqmdvJ8-19" value="" style="edgeStyle=orthogonalEdgeStyle;rounded=0;orthogonalLoop=1;jettySize=auto;html=1;" parent="1" edge="1">
          <mxGeometry relative="1" as="geometry">
            <mxPoint x="362" y="262" as="sourcePoint" />
            <mxPoint x="279" y="262" as="targetPoint" />
          </mxGeometry>
        </mxCell>
        <mxCell id="ATdAvBdtl9F5nvqmdvJ8-22" value="" style="edgeStyle=orthogonalEdgeStyle;rounded=0;orthogonalLoop=1;jettySize=auto;html=1;" parent="1" edge="1">
          <mxGeometry relative="1" as="geometry">
            <mxPoint x="492" y="259" as="sourcePoint" />
            <mxPoint x="575" y="259" as="targetPoint" />
          </mxGeometry>
        </mxCell>
        <mxCell id="ATdAvBdtl9F5nvqmdvJ8-2" value="&#xa;&lt;span style=&quot;line-height: 108%; font-family: &amp;quot;Times New Roman&amp;quot;, serif; color: black;&quot;&gt;CUSTOMCORE &lt;/span&gt;&#xa;&#xa;&#xa;&#xa;" style="ellipse;whiteSpace=wrap;html=1;aspect=fixed;fontSize=15;spacingTop=48;fontStyle=1;spacingLeft=10;spacingRight=5;" parent="1" vertex="1">
          <mxGeometry x="362" y="180" width="130" height="130" as="geometry" />
        </mxCell>
        <mxCell id="ATdAvBdtl9F5nvqmdvJ8-15" value="" style="edgeStyle=orthogonalEdgeStyle;rounded=0;orthogonalLoop=1;jettySize=auto;html=1;" parent="1" edge="1">
          <mxGeometry relative="1" as="geometry">
            <mxPoint x="447" y="115" as="sourcePoint" />
            <mxPoint x="447" y="180" as="targetPoint" />
          </mxGeometry>
        </mxCell>
        <mxCell id="ATdAvBdtl9F5nvqmdvJ8-5" value="&lt;span&gt;Admin&lt;/span&gt;&lt;div&gt;&lt;span&gt;1&lt;/span&gt;&lt;/div&gt;" style="rounded=0;whiteSpace=wrap;html=1;fontSize=14;fontStyle=1" parent="1" vertex="1">
          <mxGeometry x="367" y="55" width="120" height="60" as="geometry" />
        </mxCell>
        <mxCell id="ATdAvBdtl9F5nvqmdvJ8-20" value="" style="edgeStyle=orthogonalEdgeStyle;rounded=0;orthogonalLoop=1;jettySize=auto;html=1;" parent="1" edge="1">
          <mxGeometry relative="1" as="geometry">
            <mxPoint x="279" y="235" as="sourcePoint" />
            <mxPoint x="362" y="235" as="targetPoint" />
          </mxGeometry>
        </mxCell>
        <mxCell id="ATdAvBdtl9F5nvqmdvJ8-6" value="&lt;span&gt;&lt;font&gt;User&lt;/font&gt;&lt;/span&gt;&lt;div&gt;&lt;span&gt;&lt;font&gt;2&lt;/font&gt;&lt;/span&gt;&lt;/div&gt;" style="rounded=0;whiteSpace=wrap;html=1;fontSize=14;fontStyle=1" parent="1" vertex="1">
          <mxGeometry x="159" y="215" width="120" height="60" as="geometry" />
        </mxCell>
        <mxCell id="ATdAvBdtl9F5nvqmdvJ8-21" value="" style="edgeStyle=orthogonalEdgeStyle;rounded=0;orthogonalLoop=1;jettySize=auto;html=1;" parent="1" edge="1">
          <mxGeometry relative="1" as="geometry">
            <mxPoint x="575" y="235" as="sourcePoint" />
            <mxPoint x="492" y="235" as="targetPoint" />
          </mxGeometry>
        </mxCell>
        <mxCell id="ATdAvBdtl9F5nvqmdvJ8-7" value="&lt;b&gt;Pc Bulider&lt;/b&gt;&lt;div&gt;&lt;b&gt;3&lt;/b&gt;&lt;/div&gt;" style="rounded=0;whiteSpace=wrap;html=1;fontSize=14;" parent="1" vertex="1">
          <mxGeometry x="575" y="215" width="120" height="60" as="geometry" />
        </mxCell>
        <mxCell id="ATdAvBdtl9F5nvqmdvJ8-24" value="&lt;span style=&quot;background-color: rgb(255, 255, 255);&quot;&gt;&lt;font style=&quot;font-size: 13px;&quot;&gt;Request&lt;/font&gt;&lt;/span&gt;" style="text;html=1;align=center;verticalAlign=middle;resizable=0;points=[];autosize=1;strokeColor=none;fillColor=none;" parent="1" vertex="1">
          <mxGeometry x="287" y="260" width="70" height="30" as="geometry" />
        </mxCell>
        <mxCell id="ATdAvBdtl9F5nvqmdvJ8-25" value="&lt;span style=&quot;background-color: rgb(255, 255, 255);&quot;&gt;&lt;font style=&quot;font-size: 13px;&quot;&gt;Request&lt;/font&gt;&lt;/span&gt;" style="text;html=1;align=center;verticalAlign=middle;resizable=0;points=[];autosize=1;strokeColor=none;fillColor=none;" parent="1" vertex="1">
          <mxGeometry x="498" y="202" width="70" height="30" as="geometry" />
        </mxCell>
        <mxCell id="ATdAvBdtl9F5nvqmdvJ8-26" value="&lt;span style=&quot;background-color: rgb(255, 255, 255);&quot;&gt;&lt;font style=&quot;font-size: 13px;&quot;&gt;Request&lt;/font&gt;&lt;/span&gt;" style="text;html=1;align=center;verticalAlign=middle;resizable=0;points=[];autosize=1;strokeColor=none;fillColor=none;" parent="1" vertex="1">
          <mxGeometry x="440" y="129" width="70" height="30" as="geometry" />
        </mxCell>
        <mxCell id="ATdAvBdtl9F5nvqmdvJ8-27" value="&lt;span style=&quot;background-color: rgb(255, 255, 255);&quot;&gt;&lt;font style=&quot;font-size: 13px;&quot;&gt;Response&lt;/font&gt;&lt;/span&gt;" style="text;html=1;align=center;verticalAlign=middle;resizable=0;points=[];autosize=1;strokeColor=none;fillColor=none;" parent="1" vertex="1">
          <mxGeometry x="282" y="200" width="80" height="30" as="geometry" />
        </mxCell>
        <mxCell id="ATdAvBdtl9F5nvqmdvJ8-28" value="&lt;span style=&quot;background-color: rgb(255, 255, 255);&quot;&gt;&lt;font style=&quot;font-size: 13px;&quot;&gt;Response&lt;/font&gt;&lt;/span&gt;" style="text;html=1;align=center;verticalAlign=middle;resizable=0;points=[];autosize=1;strokeColor=none;fillColor=none;" parent="1" vertex="1">
          <mxGeometry x="320" y="130" width="80" height="30" as="geometry" />
        </mxCell>
        <mxCell id="ATdAvBdtl9F5nvqmdvJ8-29" value="&lt;span style=&quot;background-color: rgb(255, 255, 255);&quot;&gt;&lt;font style=&quot;font-size: 13px;&quot;&gt;Response&lt;/font&gt;&lt;/span&gt;" style="text;html=1;align=center;verticalAlign=middle;resizable=0;points=[];autosize=1;strokeColor=none;fillColor=none;" parent="1" vertex="1">
          <mxGeometry x="494" y="262" width="80" height="30" as="geometry" />
        </mxCell>
      </root>
    </mxGraphModel>
  </diagram>
</mxfile>
